<?xml version="1.0" encoding="UTF-8"?>
<svg xmlns="http://www.w3.org/2000/svg" xmlns:xlink="http://www.w3.org/1999/xlink" width="42px" height="42px" viewBox="0 0 42 42" version="1.1">
<g id="surface1">
<path style=" stroke:none;fill-rule:nonzero;fill:rgb(100%,94.901961%,0%);fill-opacity:1;" d="M 28.746094 22.238281 C 28.082031 22.238281 27.546875 21.699219 27.546875 21.039062 C 27.546875 20.375 28.082031 19.839844 28.746094 19.839844 C 29.40625 19.839844 29.945312 20.375 29.945312 21.039062 C 29.945312 21.699219 29.40625 22.238281 28.746094 22.238281 M 20.984375 22.238281 C 20.324219 22.238281 19.785156 21.699219 19.785156 21.039062 C 19.785156 20.375 20.324219 19.839844 20.984375 19.839844 C 21.648438 19.839844 22.183594 20.375 22.183594 21.039062 C 22.183594 21.699219 21.648438 22.238281 20.984375 22.238281 M 13.226562 22.238281 C 12.5625 22.238281 12.027344 21.699219 12.027344 21.039062 C 12.027344 20.375 12.5625 19.839844 13.226562 19.839844 C 13.886719 19.839844 14.425781 20.375 14.425781 21.039062 C 14.425781 21.699219 13.886719 22.238281 13.226562 22.238281 M 33.066406 8.957031 C 29.835938 5.726562 25.550781 3.949219 20.984375 3.949219 C 16.417969 3.949219 12.132812 5.726562 8.902344 8.957031 C 2.660156 15.199219 2.226562 25.191406 7.828125 31.933594 C 7.277344 33.039062 6.394531 34.324219 5.089844 34.96875 C 4.460938 35.28125 4.105469 35.953125 4.214844 36.644531 C 4.324219 37.339844 4.855469 37.878906 5.550781 37.988281 C 5.875 38.039062 6.339844 38.089844 6.902344 38.089844 C 8.414062 38.089844 10.636719 37.734375 12.914062 36.097656 C 15.449219 37.460938 18.226562 38.125 20.976562 38.125 C 25.398438 38.125 29.777344 36.414062 33.074219 33.117188 C 36.304688 29.890625 38.082031 25.605469 38.082031 21.039062 C 38.082031 16.46875 36.296875 12.183594 33.066406 8.957031 "/>
<path style=" stroke:none;fill-rule:nonzero;fill:rgb(0%,0%,0%);fill-opacity:1;" d="M 13.226562 18.15625 C 11.636719 18.15625 10.347656 19.449219 10.347656 21.039062 C 10.347656 22.625 11.636719 23.917969 13.226562 23.917969 C 14.8125 23.917969 16.105469 22.625 16.105469 21.039062 C 16.105469 19.449219 14.8125 18.15625 13.226562 18.15625 Z M 13.226562 19.839844 C 13.886719 19.839844 14.425781 20.375 14.425781 21.039062 C 14.425781 21.699219 13.886719 22.238281 13.226562 22.238281 C 12.5625 22.238281 12.027344 21.699219 12.027344 21.039062 C 12.027344 20.375 12.5625 19.839844 13.226562 19.839844 Z M 28.746094 18.15625 C 27.15625 18.15625 25.863281 19.449219 25.863281 21.039062 C 25.863281 22.625 27.15625 23.917969 28.746094 23.917969 C 30.332031 23.917969 31.625 22.625 31.625 21.039062 C 31.625 19.449219 30.332031 18.15625 28.746094 18.15625 Z M 28.746094 19.839844 C 29.40625 19.839844 29.945312 20.375 29.945312 21.039062 C 29.945312 21.699219 29.40625 22.238281 28.746094 22.238281 C 28.082031 22.238281 27.546875 21.699219 27.546875 21.039062 C 27.546875 20.375 28.082031 19.839844 28.746094 19.839844 Z M 20.984375 18.15625 C 19.398438 18.15625 18.105469 19.449219 18.105469 21.039062 C 18.105469 22.625 19.398438 23.917969 20.984375 23.917969 C 22.574219 23.917969 23.863281 22.625 23.863281 21.039062 C 23.863281 19.449219 22.574219 18.15625 20.984375 18.15625 Z M 20.984375 19.839844 C 21.648438 19.839844 22.183594 20.375 22.183594 21.039062 C 22.183594 21.699219 21.648438 22.238281 20.984375 22.238281 C 20.324219 22.238281 19.785156 21.699219 19.785156 21.039062 C 19.785156 20.375 20.324219 19.839844 20.984375 19.839844 Z M 12.847656 35.105469 L 13.3125 35.355469 C 15.65625 36.617188 18.308594 37.285156 20.976562 37.285156 C 23.101562 37.285156 25.171875 36.878906 27.132812 36.082031 C 29.140625 35.261719 30.941406 34.066406 32.480469 32.523438 C 35.550781 29.453125 37.242188 25.375 37.242188 21.039062 C 37.242188 16.703125 35.546875 12.625 32.472656 9.550781 C 29.402344 6.480469 25.324219 4.789062 20.984375 4.789062 C 16.648438 4.789062 12.566406 6.480469 9.496094 9.550781 C 6.628906 12.417969 4.949219 16.234375 4.761719 20.296875 C 4.578125 24.351562 5.894531 28.292969 8.472656 31.398438 L 8.824219 31.816406 L 8.578125 32.308594 C 7.769531 33.9375 6.691406 35.117188 5.460938 35.722656 C 5.160156 35.871094 4.992188 36.1875 5.042969 36.515625 C 5.097656 36.847656 5.351562 37.109375 5.679688 37.160156 C 6.066406 37.21875 6.480469 37.25 6.902344 37.25 C 8.257812 37.25 10.316406 36.933594 12.421875 35.414062 Z M 20.976562 38.964844 C 18.203125 38.964844 15.449219 38.3125 12.976562 37.074219 C 10.65625 38.597656 8.414062 38.929688 6.902344 38.929688 C 6.390625 38.929688 5.894531 38.894531 5.421875 38.820312 C 4.367188 38.65625 3.550781 37.832031 3.382812 36.773438 C 3.21875 35.71875 3.753906 34.691406 4.714844 34.214844 C 5.664062 33.75 6.359375 32.839844 6.824219 32.027344 C 4.214844 28.671875 2.890625 24.503906 3.085938 20.21875 C 3.289062 15.738281 5.144531 11.527344 8.308594 8.363281 C 11.699219 4.972656 16.199219 3.109375 20.984375 3.109375 C 25.773438 3.109375 30.273438 4.972656 33.660156 8.363281 C 37.054688 11.753906 38.921875 16.253906 38.921875 21.039062 C 38.921875 25.824219 37.054688 30.324219 33.667969 33.714844 C 31.96875 35.410156 29.984375 36.730469 27.765625 37.636719 C 25.601562 38.519531 23.316406 38.964844 20.976562 38.964844 Z M 20.976562 38.964844 "/>
</g>
</svg>
